<svg version="1.1" id="Layer_1" xmlns="http://www.w3.org/2000/svg" xmlns:xlink="http://www.w3.org/1999/xlink" x="0px" y="0px"
	 width="100%" viewBox="0 0 512 512" enable-background="new 0 0 512 512" xml:space="preserve">
<path fill="#000000" opacity="1.000000" stroke="none" 
	d="
M513.000000,195.000000 
	C513.000000,301.307495 513.000000,407.114990 513.000000,512.961243 
	C342.400818,512.961243 171.801651,512.961243 1.101233,512.961243 
	C1.101233,342.442535 1.101233,171.884979 1.101233,1.163717 
	C171.666534,1.163717 342.333252,1.163717 513.000000,1.163717 
	C513.000000,65.531647 513.000000,130.015823 513.000000,195.000000 
M171.705688,117.692085 
	C171.580872,117.561943 171.456055,117.431801 171.786484,116.790398 
	C180.221100,104.216469 190.427475,93.235825 202.912933,84.725754 
	C211.898972,78.600876 221.508102,73.357727 231.029694,68.063690 
	C236.342651,65.109657 239.419296,60.226616 238.425446,55.731613 
	C236.768219,48.236320 229.908386,44.696404 221.099350,48.932293 
	C201.119247,58.539886 183.257080,70.855064 168.084213,87.241112 
	C152.930786,103.606148 142.093750,122.276237 134.968521,143.283127 
	C134.157227,145.675003 132.844711,147.975601 131.391022,150.057724 
	C123.646004,161.150909 115.050255,171.728668 108.191261,183.337036 
	C102.725655,192.587173 99.328758,203.059631 95.062210,212.877472 
	C91.460052,197.946991 90.659698,182.501358 93.579880,167.185959 
	C95.793007,155.578781 99.549767,144.263565 102.676773,132.834061 
	C104.113487,127.582718 101.236679,121.116623 96.499146,119.231339 
	C91.460480,117.226242 85.064842,120.112495 82.793503,125.676704 
	C81.078125,129.878967 79.540375,134.173141 78.234055,138.519714 
	C71.575356,160.675598 69.056801,183.304794 72.123993,206.264069 
	C74.533852,224.302856 79.752495,241.614960 88.281898,257.834381 
	C89.302467,259.775085 89.604141,262.149506 89.974716,264.367065 
	C91.992149,276.439545 93.080505,288.744995 96.135941,300.543671 
	C98.996429,311.589539 103.910820,322.103516 108.001633,333.066864 
	C95.118088,324.717743 83.985886,314.296265 75.134445,301.811249 
	C68.681343,292.709137 63.422863,282.719482 58.095932,272.874390 
	C54.740715,266.673370 50.399845,264.775940 45.223614,266.024841 
	C37.102795,267.984131 34.962849,273.978333 38.892921,282.508118 
	C48.029430,302.337891 60.207745,319.882507 76.238960,334.934784 
	C93.009514,350.681213 112.072914,362.093872 133.906128,369.101074 
	C136.003860,369.774292 138.155792,370.891266 139.768066,372.365082 
	C150.096634,381.806915 161.352173,389.988647 173.829544,396.236359 
	C183.272583,400.964722 193.202042,404.721680 203.770813,409.280029 
	C195.785416,410.243134 188.517029,411.677490 181.212692,411.892822 
	C161.829529,412.464203 143.025635,409.222748 124.913132,402.099335 
	C118.308060,399.501648 111.194000,402.010468 109.361008,407.199554 
	C107.117554,413.550598 110.270370,419.830200 117.645973,421.916046 
	C129.531189,425.277283 141.532684,428.280090 153.588028,430.973358 
	C167.769211,434.141449 182.213821,433.698853 196.450775,431.815094 
	C214.490524,429.428131 231.820786,424.236572 247.986237,415.574951 
	C249.650345,414.683289 251.687485,414.113800 253.569687,414.062653 
	C268.244324,413.663818 282.564301,411.324310 296.350403,406.245667 
	C305.241913,402.970184 313.996277,399.322296 323.341339,395.632324 
	C313.511536,410.211700 301.873016,422.416534 287.699890,431.940216 
	C279.901031,437.180756 271.439911,441.464752 263.133331,445.910858 
	C257.312042,449.026672 254.372238,453.717743 255.866913,458.566406 
	C258.519348,467.170837 264.155579,469.301392 273.240173,464.922791 
	C292.723419,455.532227 310.218323,443.517487 325.116394,427.574493 
	C340.703430,410.894196 352.087280,391.979462 359.072266,370.307526 
	C359.749878,368.205109 360.756683,365.995605 362.221436,364.394562 
	C371.999695,353.706268 380.475586,342.070862 386.864899,329.102905 
	C391.370300,319.958557 394.919067,310.342834 399.272034,300.045441 
	C399.917206,306.074829 400.865784,311.408173 400.978394,316.759064 
	C401.185730,326.609436 402.072205,336.658600 400.523376,346.278412 
	C398.622345,358.085907 394.568054,369.553009 391.343231,381.139008 
	C389.065460,389.322388 395.123474,396.370972 403.427032,394.952637 
	C407.906006,394.187561 410.780518,391.272217 411.880127,387.063873 
	C415.082672,374.808014 418.232849,362.530609 421.005585,350.172363 
	C424.189606,335.980957 423.749573,321.514191 421.785706,307.306305 
	C419.299438,289.319214 414.248627,271.931946 405.441895,255.821991 
	C404.471863,254.047516 404.357239,251.767181 404.016052,249.693466 
	C402.028229,237.611771 400.980438,225.287369 397.875183,213.503448 
	C395.035095,202.725769 389.988678,192.529495 386.307953,181.705582 
	C386.437927,181.580551 386.567932,181.455521 387.210083,181.779648 
	C399.671234,190.099426 410.534119,200.212952 418.969696,212.540268 
	C425.284546,221.768524 430.601776,231.694077 436.120056,241.446747 
	C438.953278,246.454071 443.965454,249.611771 448.238312,248.359436 
	C456.789124,245.853271 459.150635,240.318207 455.190582,231.639267 
	C446.279449,212.109497 434.179352,194.904343 418.624817,179.982773 
	C401.646698,163.695511 382.168610,151.921570 359.762848,144.854828 
	C357.816528,144.240952 355.845551,143.135696 354.349091,141.756317 
	C343.689972,131.931183 331.964539,123.567863 319.031128,117.127998 
	C309.938873,112.600731 300.337250,109.096504 290.873596,105.097664 
	C305.900238,101.530342 321.196381,100.647949 336.353729,103.388428 
	C347.992126,105.492683 359.345795,109.218834 370.777954,112.396889 
	C376.597809,114.014778 382.639496,111.780251 384.528625,106.929092 
	C386.687927,101.383980 384.074860,95.143715 378.333923,92.803986 
	C373.970825,91.025810 369.508636,89.441574 364.995026,88.090034 
	C342.991791,81.501450 320.501526,79.187630 297.734528,82.139091 
	C279.690521,84.478287 262.392883,89.761940 246.172607,98.276215 
	C244.231491,99.295128 241.861435,99.604485 239.645401,99.974159 
	C227.578247,101.987137 215.263290,103.029533 203.489487,106.134605 
	C192.717255,108.975525 182.524841,114.014977 171.705688,117.692085 
M419.734131,32.064079 
	C418.641144,32.780777 417.546539,33.495056 416.455383,34.214542 
	C401.537842,44.050983 393.153351,64.053947 397.184631,81.246849 
	C403.670898,108.910103 430.792084,124.288269 458.775665,114.118515 
	C481.642365,105.808342 493.072784,79.584251 484.306030,55.535290 
	C474.763428,29.358099 443.619202,19.637407 419.734131,32.064079 
M27.049980,443.866058 
	C29.665594,451.197937 32.880505,458.010345 39.871822,462.438110 
	C46.326157,466.525787 53.276882,467.618042 60.655712,466.984863 
	C69.068680,466.262939 75.868324,462.531769 81.055481,455.833862 
	C86.049721,449.385040 87.656036,442.097076 87.042519,434.061157 
	C86.367165,425.215118 82.578720,418.295288 75.585876,412.836395 
	C69.066055,407.746704 61.753410,406.371826 53.775547,406.985229 
	C45.142555,407.648987 38.335102,411.465912 32.902946,418.190704 
	C26.937376,425.575867 26.472279,434.123871 27.049980,443.866058 
M179.138809,467.002411 
	C174.509201,466.539551 169.700943,466.929169 168.034943,471.816223 
	C166.942337,475.021332 167.069229,479.295502 168.276871,482.472443 
	C169.929413,486.819794 176.066223,488.919403 180.820740,486.722260 
	C183.430954,485.516022 186.244614,482.228821 186.748581,479.474152 
	C188.085648,472.165710 186.190643,469.547913 179.138809,467.002411 
M426.997589,444.854675 
	C426.931519,440.662048 424.143280,438.300446 420.760590,437.145050 
	C415.843231,435.465546 410.185394,437.084442 408.480316,441.327362 
	C407.175446,444.574310 407.062134,449.030518 408.191620,452.344727 
	C409.679871,456.711792 415.455353,458.239990 420.759796,456.968628 
	C424.826843,455.993805 426.994843,452.081848 426.997589,444.854675 
M37.001343,355.722748 
	C37.303898,357.942078 37.067158,360.432220 38.018017,362.326050 
	C40.191692,366.655334 46.329571,368.802246 51.148262,366.793915 
	C55.333950,365.049438 57.432262,361.705383 57.084133,356.759125 
	C56.700184,351.303986 54.126431,347.443390 49.725647,347.006592 
	C42.087124,346.248413 38.227093,348.633820 37.001343,355.722748 
M447.002319,344.872620 
	C446.639191,349.427734 446.738098,354.294891 451.749542,355.934540 
	C454.991211,356.995117 459.227539,356.952881 462.413727,355.772827 
	C466.741913,354.169769 468.880188,348.032288 466.730591,343.246765 
	C465.553009,340.625122 462.283112,337.770294 459.536407,337.253174 
	C452.199493,335.872009 449.563477,337.771179 447.002319,344.872620 
M50.006702,136.992676 
	C56.282921,134.416153 58.371159,130.366943 56.972576,123.485458 
	C56.036606,118.880180 51.311863,116.433151 44.460217,117.005089 
	C40.906971,117.301697 37.374989,121.080399 36.976925,124.662895 
	C36.085438,132.686035 39.584335,138.201279 50.006702,136.992676 
M344.860901,56.997887 
	C349.411774,57.355446 354.283051,57.271893 355.923462,52.257236 
	C356.984680,49.012985 356.943207,44.778900 355.769348,41.586460 
	C354.180084,37.264145 348.005188,35.105915 343.248199,37.272354 
	C340.616638,38.470856 337.760529,41.774033 337.254852,44.539715 
	C335.915527,51.865360 337.808777,54.466015 344.860901,56.997887 
M126.572433,37.001225 
	C119.718773,37.141376 116.915222,40.369289 117.001251,48.021172 
	C117.068710,54.022175 120.396667,57.000526 127.032845,56.998940 
	C133.651947,56.997356 136.935059,54.015751 136.998764,47.948265 
	C137.080017,40.209156 134.403183,37.146400 126.572433,37.001225 
z"/>
<path fill="#1E81CE" opacity="1.000000" stroke="none" 
	d="
M385.914551,182.076996 
	C389.988678,192.529495 395.035095,202.725769 397.875183,213.503448 
	C400.980438,225.287369 402.028229,237.611771 404.016052,249.693466 
	C404.357239,251.767181 404.471863,254.047516 405.441895,255.821991 
	C414.248627,271.931946 419.299438,289.319214 421.785706,307.306305 
	C423.749573,321.514191 424.189606,335.980957 421.005585,350.172363 
	C418.232849,362.530609 415.082672,374.808014 411.880127,387.063873 
	C410.780518,391.272217 407.906006,394.187561 403.427032,394.952637 
	C395.123474,396.370972 389.065460,389.322388 391.343231,381.139008 
	C394.568054,369.553009 398.622345,358.085907 400.523376,346.278412 
	C402.072205,336.658600 401.185730,326.609436 400.978394,316.759064 
	C400.865784,311.408173 399.917206,306.074829 399.272034,300.045441 
	C394.919067,310.342834 391.370300,319.958557 386.864899,329.102905 
	C380.475586,342.070862 371.999695,353.706268 362.221436,364.394562 
	C360.756683,365.995605 359.749878,368.205109 359.072266,370.307526 
	C352.087280,391.979462 340.703430,410.894196 325.116394,427.574493 
	C310.218323,443.517487 292.723419,455.532227 273.240173,464.922791 
	C264.155579,469.301392 258.519348,467.170837 255.866913,458.566406 
	C254.372238,453.717743 257.312042,449.026672 263.133331,445.910858 
	C271.439911,441.464752 279.901031,437.180756 287.699890,431.940216 
	C301.873016,422.416534 313.511536,410.211700 323.341339,395.632324 
	C313.996277,399.322296 305.241913,402.970184 296.350403,406.245667 
	C282.564301,411.324310 268.244324,413.663818 253.569687,414.062653 
	C251.687485,414.113800 249.650345,414.683289 247.986237,415.574951 
	C231.820786,424.236572 214.490524,429.428131 196.450775,431.815094 
	C182.213821,433.698853 167.769211,434.141449 153.588028,430.973358 
	C141.532684,428.280090 129.531189,425.277283 117.645973,421.916046 
	C110.270370,419.830200 107.117554,413.550598 109.361008,407.199554 
	C111.194000,402.010468 118.308060,399.501648 124.913132,402.099335 
	C143.025635,409.222748 161.829529,412.464203 181.212692,411.892822 
	C188.517029,411.677490 195.785416,410.243134 203.770813,409.280029 
	C193.202042,404.721680 183.272583,400.964722 173.829544,396.236359 
	C161.352173,389.988647 150.096634,381.806915 139.768066,372.365082 
	C138.155792,370.891266 136.003860,369.774292 133.906128,369.101074 
	C112.072914,362.093872 93.009514,350.681213 76.238960,334.934784 
	C60.207745,319.882507 48.029430,302.337891 38.892921,282.508118 
	C34.962849,273.978333 37.102795,267.984131 45.223614,266.024841 
	C50.399845,264.775940 54.740715,266.673370 58.095932,272.874390 
	C63.422863,282.719482 68.681343,292.709137 75.134445,301.811249 
	C83.985886,314.296265 95.118088,324.717743 108.001633,333.066864 
	C103.910820,322.103516 98.996429,311.589539 96.135941,300.543671 
	C93.080505,288.744995 91.992149,276.439545 89.974716,264.367065 
	C89.604141,262.149506 89.302467,259.775085 88.281898,257.834381 
	C79.752495,241.614960 74.533852,224.302856 72.123993,206.264069 
	C69.056801,183.304794 71.575356,160.675598 78.234055,138.519714 
	C79.540375,134.173141 81.078125,129.878967 82.793503,125.676704 
	C85.064842,120.112495 91.460480,117.226242 96.499146,119.231339 
	C101.236679,121.116623 104.113487,127.582718 102.676773,132.834061 
	C99.549767,144.263565 95.793007,155.578781 93.579880,167.185959 
	C90.659698,182.501358 91.460052,197.946991 95.062210,212.877472 
	C99.328758,203.059631 102.725655,192.587173 108.191261,183.337036 
	C115.050255,171.728668 123.646004,161.150909 131.391022,150.057724 
	C132.844711,147.975601 134.157227,145.675003 134.968521,143.283127 
	C142.093750,122.276237 152.930786,103.606148 168.084213,87.241112 
	C183.257080,70.855064 201.119247,58.539886 221.099350,48.932293 
	C229.908386,44.696404 236.768219,48.236320 238.425446,55.731613 
	C239.419296,60.226616 236.342651,65.109657 231.029694,68.063690 
	C221.508102,73.357727 211.898972,78.600876 202.912933,84.725754 
	C190.427475,93.235825 180.221100,104.216469 171.343933,117.232986 
	C170.788528,118.042839 170.675659,118.410103 170.562790,118.777359 
	C171.067505,118.546783 171.572220,118.316200 172.076920,118.085617 
	C182.524841,114.014977 192.717255,108.975525 203.489487,106.134605 
	C215.263290,103.029533 227.578247,101.987137 239.645401,99.974159 
	C241.861435,99.604485 244.231491,99.295128 246.172607,98.276215 
	C262.392883,89.761940 279.690521,84.478287 297.734528,82.139091 
	C320.501526,79.187630 342.991791,81.501450 364.995026,88.090034 
	C369.508636,89.441574 373.970825,91.025810 378.333923,92.803986 
	C384.074860,95.143715 386.687927,101.383980 384.528625,106.929092 
	C382.639496,111.780251 376.597809,114.014778 370.777954,112.396889 
	C359.345795,109.218834 347.992126,105.492683 336.353729,103.388428 
	C321.196381,100.647949 305.900238,101.530342 290.873596,105.097664 
	C300.337250,109.096504 309.938873,112.600731 319.031128,117.127998 
	C331.964539,123.567863 343.689972,131.931183 354.349091,141.756317 
	C355.845551,143.135696 357.816528,144.240952 359.762848,144.854828 
	C382.168610,151.921570 401.646698,163.695511 418.624817,179.982773 
	C434.179352,194.904343 446.279449,212.109497 455.190582,231.639267 
	C459.150635,240.318207 456.789124,245.853271 448.238312,248.359436 
	C443.965454,249.611771 438.953278,246.454071 436.120056,241.446747 
	C430.601776,231.694077 425.284546,221.768524 418.969696,212.540268 
	C410.534119,200.212952 399.671234,190.099426 386.765686,181.338989 
	C385.948761,180.784637 385.576233,180.670944 385.203735,180.557251 
	C385.440674,181.063828 385.677612,181.570419 385.914551,182.076996 
M215.463165,390.078217 
	C231.499756,393.973419 247.721786,394.869110 264.072906,392.784821 
	C338.936920,383.242004 392.274323,314.576538 382.809723,239.998123 
	C372.756897,160.784546 297.379547,106.877357 219.256470,123.030670 
	C148.258896,137.710663 99.956390,206.065002 111.957489,277.236359 
	C121.901794,336.210175 157.269760,373.457611 215.463165,390.078217 
z"/>
<path fill="#1F81CE" opacity="1.000000" stroke="none" 
	d="
M420.104187,31.984911 
	C443.619202,19.637407 474.763428,29.358099 484.306030,55.535290 
	C493.072784,79.584251 481.642365,105.808342 458.775665,114.118515 
	C430.792084,124.288269 403.670898,108.910103 397.184631,81.246849 
	C393.153351,64.053947 401.537842,44.050983 416.455383,34.214542 
	C417.546539,33.495056 418.641144,32.780777 420.104187,31.984911 
M466.850922,75.038963 
	C466.893127,73.709511 467.010773,72.377495 466.965576,71.051025 
	C466.618683,60.868484 459.835175,51.715347 450.213043,48.396202 
	C440.300262,44.976791 429.316345,48.070045 422.710236,56.141537 
	C416.143951,64.164291 415.149567,75.188347 420.180847,84.182350 
	C425.071411,92.924736 435.118164,98.074097 444.914429,96.859261 
	C455.976654,95.487434 463.655731,88.104073 466.850922,75.038963 
z"/>
<path fill="#1E81CE" opacity="1.000000" stroke="none" 
	d="
M27.029898,443.422546 
	C26.472279,434.123871 26.937376,425.575867 32.902946,418.190704 
	C38.335102,411.465912 45.142555,407.648987 53.775547,406.985229 
	C61.753410,406.371826 69.066055,407.746704 75.585876,412.836395 
	C82.578720,418.295288 86.367165,425.215118 87.042519,434.061157 
	C87.656036,442.097076 86.049721,449.385040 81.055481,455.833862 
	C75.868324,462.531769 69.068680,466.262939 60.655712,466.984863 
	C53.276882,467.618042 46.326157,466.525787 39.871822,462.438110 
	C32.880505,458.010345 29.665594,451.197937 27.029898,443.422546 
M58.179520,427.066803 
	C52.149059,427.336945 48.512024,429.864258 47.281994,434.639282 
	C46.207352,438.811066 48.284050,443.536560 52.144947,445.704834 
	C57.212696,448.550873 63.552132,446.459381 66.036263,441.121796 
	C68.686333,435.427734 65.942688,430.015076 58.179520,427.066803 
z"/>
<path fill="#1E81CE" opacity="1.000000" stroke="none" 
	d="
M179.567566,467.005310 
	C186.190643,469.547913 188.085648,472.165710 186.748581,479.474152 
	C186.244614,482.228821 183.430954,485.516022 180.820740,486.722260 
	C176.066223,488.919403 169.929413,486.819794 168.276871,482.472443 
	C167.069229,479.295502 166.942337,475.021332 168.034943,471.816223 
	C169.700943,466.929169 174.509201,466.539551 179.567566,467.005310 
z"/>
<path fill="#1E81CE" opacity="1.000000" stroke="none" 
	d="
M426.998108,445.282898 
	C426.994843,452.081848 424.826843,455.993805 420.759796,456.968628 
	C415.455353,458.239990 409.679871,456.711792 408.191620,452.344727 
	C407.062134,449.030518 407.175446,444.574310 408.480316,441.327362 
	C410.185394,437.084442 415.843231,435.465546 420.760590,437.145050 
	C424.143280,438.300446 426.931519,440.662048 426.998108,445.282898 
z"/>
<path fill="#1E81CE" opacity="1.000000" stroke="none" 
	d="
M37.001862,355.295959 
	C38.227093,348.633820 42.087124,346.248413 49.725647,347.006592 
	C54.126431,347.443390 56.700184,351.303986 57.084133,356.759125 
	C57.432262,361.705383 55.333950,365.049438 51.148262,366.793915 
	C46.329571,368.802246 40.191692,366.655334 38.018017,362.326050 
	C37.067158,360.432220 37.303898,357.942078 37.001862,355.295959 
z"/>
<path fill="#1E81CE" opacity="1.000000" stroke="none" 
	d="
M447.005066,344.444916 
	C449.563477,337.771179 452.199493,335.872009 459.536407,337.253174 
	C462.283112,337.770294 465.553009,340.625122 466.730591,343.246765 
	C468.880188,348.032288 466.741913,354.169769 462.413727,355.772827 
	C459.227539,356.952881 454.991211,356.995117 451.749542,355.934540 
	C446.738098,354.294891 446.639191,349.427734 447.005066,344.444916 
z"/>
<path fill="#1E81CE" opacity="1.000000" stroke="none" 
	d="
M49.574570,136.995270 
	C39.584335,138.201279 36.085438,132.686035 36.976925,124.662895 
	C37.374989,121.080399 40.906971,117.301697 44.460217,117.005089 
	C51.311863,116.433151 56.036606,118.880180 56.972576,123.485458 
	C58.371159,130.366943 56.282921,134.416153 49.574570,136.995270 
z"/>
<path fill="#1E81CE" opacity="1.000000" stroke="none" 
	d="
M344.431519,56.995407 
	C337.808777,54.466015 335.915527,51.865360 337.254852,44.539715 
	C337.760529,41.774033 340.616638,38.470856 343.248199,37.272354 
	C348.005188,35.105915 354.180084,37.264145 355.769348,41.586460 
	C356.943207,44.778900 356.984680,49.012985 355.923462,52.257236 
	C354.283051,57.271893 349.411774,57.355446 344.431519,56.995407 
z"/>
<path fill="#1E81CE" opacity="1.000000" stroke="none" 
	d="
M127.001785,37.001221 
	C134.403183,37.146400 137.080017,40.209156 136.998764,47.948265 
	C136.935059,54.015751 133.651947,56.997356 127.032845,56.998940 
	C120.396667,57.000526 117.068710,54.022175 117.001251,48.021172 
	C116.915222,40.369289 119.718773,37.141376 127.001785,37.001221 
z"/>
<path fill="#9AC9FF" opacity="1.000000" stroke="none" 
	d="
M215.052795,390.010284 
	C157.269760,373.457611 121.901794,336.210175 111.957489,277.236359 
	C99.956390,206.065002 148.258896,137.710663 219.256470,123.030670 
	C297.379547,106.877357 372.756897,160.784546 382.809723,239.998123 
	C392.274323,314.576538 338.936920,383.242004 264.072906,392.784821 
	C247.721786,394.869110 231.499756,393.973419 215.052795,390.010284 
M318.814850,319.305542 
	C337.270844,297.317230 344.822693,272.127777 341.115631,243.599854 
	C334.317322,191.282928 284.257294,154.641159 231.175140,163.157486 
	C179.173828,171.500412 142.915787,223.205765 153.659698,274.699036 
	C161.608109,312.794098 184.720657,338.306580 222.195755,348.530273 
	C259.519073,358.712555 291.852783,348.032684 318.814850,319.305542 
z"/>
<path fill="#000000" opacity="1.000000" stroke="none" 
	d="
M386.111267,181.891296 
	C385.677612,181.570419 385.440674,181.063828 385.203735,180.557251 
	C385.576233,180.670944 385.948761,180.784637 386.509583,181.114410 
	C386.567932,181.455521 386.437927,181.580551 386.111267,181.891296 
z"/>
<path fill="#000000" opacity="1.000000" stroke="none" 
	d="
M171.891296,117.888855 
	C171.572220,118.316200 171.067505,118.546783 170.562790,118.777359 
	C170.675659,118.410103 170.788528,118.042839 171.116302,117.488617 
	C171.456055,117.431801 171.580872,117.561943 171.891296,117.888855 
z"/>
<path fill="#FDFEFE" opacity="1.000000" stroke="none" 
	d="
M466.787964,75.463776 
	C463.655731,88.104073 455.976654,95.487434 444.914429,96.859261 
	C435.118164,98.074097 425.071411,92.924736 420.180847,84.182350 
	C415.149567,75.188347 416.143951,64.164291 422.710236,56.141537 
	C429.316345,48.070045 440.300262,44.976791 450.213043,48.396202 
	C459.835175,51.715347 466.618683,60.868484 466.965576,71.051025 
	C467.010773,72.377495 466.893127,73.709511 466.787964,75.463776 
z"/>
<path fill="#F8FBFE" opacity="1.000000" stroke="none" 
	d="
M58.573692,427.122009 
	C65.942688,430.015076 68.686333,435.427734 66.036263,441.121796 
	C63.552132,446.459381 57.212696,448.550873 52.144947,445.704834 
	C48.284050,443.536560 46.207352,438.811066 47.281994,434.639282 
	C48.512024,429.864258 52.149059,427.336945 58.573692,427.122009 
z"/>
<path fill="#2082CF" opacity="1.000000" stroke="none" 
	d="
M318.581360,319.571899 
	C291.852783,348.032684 259.519073,358.712555 222.195755,348.530273 
	C184.720657,338.306580 161.608109,312.794098 153.659698,274.699036 
	C142.915787,223.205765 179.173828,171.500412 231.175140,163.157486 
	C284.257294,154.641159 334.317322,191.282928 341.115631,243.599854 
	C344.822693,272.127777 337.270844,297.317230 318.581360,319.571899 
M224.049332,185.446121 
	C187.922394,197.906433 167.314697,231.603165 172.903915,269.076691 
	C179.060471,310.354034 219.886963,338.837921 261.357483,330.789124 
	C302.386597,322.826019 329.546295,281.740570 320.462708,241.378601 
	C310.652832,197.789673 268.854309,173.230637 224.049332,185.446121 
z"/>
<path fill="#FDFEFF" opacity="1.000000" stroke="none" 
	d="
M224.426697,185.309891 
	C268.854309,173.230637 310.652832,197.789673 320.462708,241.378601 
	C329.546295,281.740570 302.386597,322.826019 261.357483,330.789124 
	C219.886963,338.837921 179.060471,310.354034 172.903915,269.076691 
	C167.314697,231.603165 187.922394,197.906433 224.426697,185.309891 
M228.081604,286.558624 
	C217.914764,279.612000 212.439072,270.083618 211.912689,257.691193 
	C211.637436,251.211151 207.378296,246.935089 201.715790,247.029755 
	C195.788162,247.128845 191.912720,251.693008 191.973740,258.503052 
	C192.272934,291.886475 223.319412,316.899414 257.249908,311.093567 
	C284.640228,306.406769 304.356537,280.253082 301.909943,251.851974 
	C299.553162,224.493500 275.722473,202.228241 248.523102,201.972107 
	C241.676163,201.907623 237.139481,205.746475 237.033493,211.694382 
	C236.932419,217.366226 241.232971,221.284409 247.663742,222.014404 
	C251.917694,222.497284 256.330902,223.066803 260.264740,224.626648 
	C278.913025,232.021072 287.335052,253.920990 278.757690,271.949768 
	C269.767426,290.846344 247.991730,297.369659 228.081604,286.558624 
z"/>
<path fill="#2182CF" opacity="1.000000" stroke="none" 
	d="
M228.398636,286.749725 
	C247.991730,297.369659 269.767426,290.846344 278.757690,271.949768 
	C287.335052,253.920990 278.913025,232.021072 260.264740,224.626648 
	C256.330902,223.066803 251.917694,222.497284 247.663742,222.014404 
	C241.232971,221.284409 236.932419,217.366226 237.033493,211.694382 
	C237.139481,205.746475 241.676163,201.907623 248.523102,201.972107 
	C275.722473,202.228241 299.553162,224.493500 301.909943,251.851974 
	C304.356537,280.253082 284.640228,306.406769 257.249908,311.093567 
	C223.319412,316.899414 192.272934,291.886475 191.973740,258.503052 
	C191.912720,251.693008 195.788162,247.128845 201.715790,247.029755 
	C207.378296,246.935089 211.637436,251.211151 211.912689,257.691193 
	C212.439072,270.083618 217.914764,279.612000 228.398636,286.749725 
z"/>
</svg>