<?xml version="1.0" encoding="UTF-8"?>
<!DOCTYPE svg PUBLIC "-//W3C//DTD SVG 1.1//EN" "http://www.w3.org/Graphics/SVG/1.1/DTD/svg11.dtd">
<svg xmlns="http://www.w3.org/2000/svg" version="1.1" width="512px" height="512px" style="shape-rendering:geometricPrecision; text-rendering:geometricPrecision; image-rendering:optimizeQuality; fill-rule:evenodd; clip-rule:evenodd" xmlns:xlink="http://www.w3.org/1999/xlink">
<g><path style="opacity:0.983" fill="#1e81ce" d="M 430.5,25.5 C 453.793,22.3955 470.959,31.0622 482,51.5C 490.029,72.5451 485.862,90.7118 469.5,106C 452.989,117.094 435.656,118.427 417.5,110C 394.914,93.8304 389.414,72.9971 401,47.5C 408.172,36.4814 418.005,29.1481 430.5,25.5 Z"/></g>
<g><path style="opacity:0.953" fill="#1e81ce" d="M 120.5,35.5 C 132.324,33.8236 137.158,38.8236 135,50.5C 131.345,55.2745 126.512,56.7745 120.5,55C 115.725,51.3449 114.225,46.5116 116,40.5C 117.366,38.6383 118.866,36.9717 120.5,35.5 Z"/></g>
<g><path style="opacity:0.953" fill="#1e81ce" d="M 340.5,35.5 C 352.324,33.8236 357.158,38.8236 355,50.5C 351.345,55.2745 346.512,56.7745 340.5,55C 335.725,51.3449 334.225,46.5116 336,40.5C 337.366,38.6383 338.866,36.9717 340.5,35.5 Z"/></g>
<g><path style="opacity:0.981" fill="#1e81ce" d="M 223.5,45.5 C 235.339,45.8573 239.172,51.5239 235,62.5C 226.451,67.1929 217.951,72.0262 209.5,77C 193.541,87.9583 179.875,101.292 168.5,117C 179.502,112.18 190.836,107.847 202.5,104C 215.609,100.528 228.943,98.5279 242.5,98C 288.002,75.1083 334.168,73.6083 381,93.5C 386.526,105.63 382.692,111.463 369.5,111C 343.177,100.445 316.177,98.1114 288.5,104C 313.574,111.53 335.574,124.197 354.5,142C 400.542,157.043 433.709,186.543 454,230.5C 457.585,239.663 454.585,245.33 445,247.5C 442.755,246.863 440.588,246.03 438.5,245C 433.807,236.451 428.974,227.951 424,219.5C 413.042,203.541 399.708,189.875 384,178.5C 392.032,195.267 397.699,212.934 401,231.5C 400.618,243.316 403.284,254.316 409,264.5C 426.053,306.922 425.553,349.088 407.5,391C 395.37,396.526 389.537,392.692 390,379.5C 400.467,353.17 402.8,326.17 397,298.5C 389.47,323.574 376.803,345.574 359,364.5C 343.957,410.542 314.457,443.709 270.5,464C 261.337,467.585 255.67,464.585 253.5,455C 254.137,452.755 254.97,450.588 256,448.5C 279.783,437.393 300.116,421.727 317,401.5C 318.934,398.966 320.268,396.299 321,393.5C 298.441,405.849 274.275,412.349 248.5,413C 202.998,435.892 156.832,437.392 110,417.5C 104.474,405.37 108.308,399.537 121.5,400C 147.823,410.555 174.823,412.889 202.5,407C 177.426,399.47 155.426,386.803 136.5,369C 95.9355,356.148 65.1021,331.315 44,294.5C 40.3279,288.16 37.4946,281.493 35.5,274.5C 37.7022,264.732 43.3689,261.899 52.5,266C 57.6989,274.224 62.5323,282.724 67,291.5C 76.0465,304.884 86.8798,316.717 99.5,327C 102.034,328.934 104.701,330.268 107.5,331C 95.151,308.439 88.651,284.273 88,258.5C 65.0864,212.999 63.5864,166.832 83.5,120C 95.6297,114.474 101.463,118.308 101,131.5C 90.5332,157.83 88.1999,184.83 94,212.5C 101.53,187.426 114.197,165.426 132,146.5C 147.713,99.2939 178.213,65.6272 223.5,45.5 Z"/></g>
<g><path style="opacity:1" fill="#fcfdfe" d="M 434.5,45.5 C 455.51,44.6777 465.677,54.6777 465,75.5C 460.348,90.4662 450.181,96.9662 434.5,95C 420.079,89.8993 413.912,79.7326 416,64.5C 419.017,54.9839 425.184,48.6505 434.5,45.5 Z"/></g>
<g><path style="opacity:0.953" fill="#1e81ce" d="M 40.5,115.5 C 52.3244,113.824 57.1577,118.824 55,130.5C 51.3449,135.275 46.5116,136.775 40.5,135C 35.7255,131.345 34.2255,126.512 36,120.5C 37.3657,118.638 38.8657,116.972 40.5,115.5 Z"/></g>
<g><path style="opacity:1" fill="#9ac8fe" d="M 231.5,118.5 C 289.907,115.948 334.407,139.281 365,188.5C 390.889,239.622 387.889,288.955 356,336.5C 318.165,383.226 269.665,400.393 210.5,388C 154.471,370.637 120.971,333.137 110,275.5C 104.155,214.692 126.988,168.192 178.5,136C 195.254,126.966 212.921,121.132 231.5,118.5 Z"/></g>
<g><path style="opacity:1" fill="#2182ce" d="M 231.5,160.5 C 280.414,157.525 314.914,178.192 335,222.5C 348.456,269.468 335.623,307.301 296.5,336C 264.698,354.172 232.364,355.172 199.5,339C 158.86,312.863 143.694,276.029 154,228.5C 166.966,191.026 192.799,168.36 231.5,160.5 Z"/></g>
<g><path style="opacity:1" fill="#fdfdfe" d="M 233.5,180.5 C 277.075,177.947 305.575,197.28 319,238.5C 324.894,277.212 310.727,305.712 276.5,324C 238.755,337.858 207.589,329.024 183,297.5C 162.957,262.08 166.79,229.58 194.5,200C 205.97,190.265 218.97,183.765 233.5,180.5 Z"/></g>
<g><path style="opacity:1" fill="#2282ce" d="M 241.5,200.5 C 270.266,200.773 289.433,214.44 299,241.5C 304.119,270.759 293.619,292.259 267.5,306C 235.32,316.654 211.153,307.154 195,277.5C 191.713,269.114 190.38,260.447 191,251.5C 197.663,243.303 203.996,243.636 210,252.5C 212.074,278.915 226.24,291.415 252.5,290C 273.342,283.475 282.508,269.309 280,247.5C 273.946,229.708 261.446,220.541 242.5,220C 233.589,213.829 233.256,207.329 241.5,200.5 Z"/></g>
<g><path style="opacity:0.953" fill="#1e81ce" d="M 450.5,335.5 C 462.324,333.824 467.158,338.824 465,350.5C 461.345,355.275 456.512,356.775 450.5,355C 445.725,351.345 444.225,346.512 446,340.5C 447.366,338.638 448.866,336.972 450.5,335.5 Z"/></g>
<g><path style="opacity:0.953" fill="#1e81ce" d="M 40.5,345.5 C 52.3244,343.824 57.1577,348.824 55,360.5C 51.3449,365.275 46.5116,366.775 40.5,365C 35.7255,361.345 34.2255,356.512 36,350.5C 37.3657,348.638 38.8657,346.972 40.5,345.5 Z"/></g>
<g><path style="opacity:0.981" fill="#1e81ce" d="M 47.5,405.5 C 74.645,403.811 87.145,416.478 85,443.5C 78.4911,460.844 65.9911,468.011 47.5,465C 30.1556,458.491 22.9889,445.991 26,427.5C 29.3501,416.318 36.5167,408.984 47.5,405.5 Z"/></g>
<g><path style="opacity:1" fill="#f8fbfd" d="M 51.5,425.5 C 63.854,425.559 67.6873,431.225 63,442.5C 55.6825,447.511 50.0158,446.178 46,438.5C 45.1138,432.946 46.9471,428.613 51.5,425.5 Z"/></g>
<g><path style="opacity:0.953" fill="#1e81ce" d="M 410.5,435.5 C 422.324,433.824 427.158,438.824 425,450.5C 421.345,455.275 416.512,456.775 410.5,455C 405.725,451.345 404.225,446.512 406,440.5C 407.366,438.638 408.866,436.972 410.5,435.5 Z"/></g>
<g><path style="opacity:0.953" fill="#1e81ce" d="M 170.5,465.5 C 182.324,463.824 187.158,468.824 185,480.5C 181.345,485.275 176.512,486.775 170.5,485C 165.725,481.345 164.225,476.512 166,470.5C 167.366,468.638 168.866,466.972 170.5,465.5 Z"/></g>
</svg>
